{"glyphs":{":":{"x_min":0,"x_max":278,"ha":278,"o":"m 141 461 q 164 461 179 445 q 195 429 195 407 q 195 384 179 368 q 164 353 141 353 q 119 353 103 368 q 87 384 87 407 q 87 429 103 445 q 119 461 141 461 z m 140 95 q 163 95 179 79 q 195 63 195 41 q 195 18 179 2 q 163 -14 140 -14 q 118 -14 102 2 q 86 18 86 41 q 86 63 102 79 q 118 95 140 95 z"},"$":{"x_min":0,"x_max":500,"ha":500,"o":"m 53 163 l 74 163 q 80 96 116 61 q 153 25 226 18 l 226 303 q 116 371 79 423 q 53 460 53 514 q 53 574 98 619 q 143 664 226 673 l 226 718 l 257 718 l 257 673 q 297 670 324 664 q 338 660 418 630 l 418 484 l 399 484 q 393 562 359 597 q 325 633 257 640 l 257 392 q 380 306 415 265 q 450 225 450 164 q 450 97 399 45 q 348 -6 257 -14 l 257 -76 l 226 -76 l 226 -14 q 180 -12 140 -3 q 101 5 53 25 z m 226 413 l 226 640 q 177 634 153 609 q 129 583 129 545 q 129 510 151 479 q 172 448 226 413 z m 257 18 q 293 24 313 36 q 340 53 356 81 q 372 108 372 140 q 372 172 353 201 q 333 229 257 282 z"},"?":{"x_min":0,"x_max":444,"ha":444,"o":"m 222 156 l 202 156 q 205 218 217 258 q 229 298 267 370 q 296 425 305 455 q 313 484 313 515 q 313 577 281 613 q 248 650 200 650 q 157 650 133 630 q 108 610 108 586 q 108 568 123 542 q 138 516 138 502 q 138 484 126 472 q 115 460 99 460 q 79 460 62 481 q 45 501 45 537 q 45 592 92 635 q 140 677 221 677 q 321 677 369 619 q 404 576 404 523 q 404 488 388 450 q 372 413 328 362 q 257 282 241 248 q 225 215 222 156 z m 215 96 q 238 96 254 80 q 270 64 270 41 q 270 19 253 3 q 237 -13 215 -13 q 192 -13 177 3 q 161 19 161 41 q 161 64 177 80 q 192 96 215 96 z"},"<":{"x_min":0,"x_max":564,"ha":564,"o":"m 18 345 l 543 572 l 543 530 l 91 333 l 543 135 l 543 91 l 18 321 z"},"'":{"x_min":0,"x_max":180,"ha":180,"o":"m 77 392 l 51 537 q 40 597 40 618 q 40 649 52 663 q 65 677 87 677 q 109 677 123 663 q 138 648 138 625 q 138 607 125 536 l 99 392 z"},"=":{"x_min":0,"x_max":564,"ha":564,"o":"m 18 431 l 545 431 l 545 391 l 18 391 z m 18 272 l 545 272 l 545 232 l 18 232 z"},"a":{"x_min":0,"x_max":444,"ha":444,"o":"m 285 64 q 216 11 198 3 q 172 -9 142 -9 q 96 -9 66 22 q 36 54 36 106 q 36 139 50 163 q 70 196 120 225 q 169 254 285 296 l 285 314 q 285 381 263 406 q 242 431 202 431 q 171 431 153 414 q 134 397 134 376 l 135 348 q 135 325 124 313 q 112 301 94 301 q 76 301 64 313 q 53 326 53 348 q 53 390 96 425 q 139 460 216 460 q 276 460 314 440 q 343 425 356 393 q 365 372 365 307 l 365 155 q 365 91 368 77 q 370 62 376 58 q 381 53 389 53 q 396 53 402 56 q 413 62 442 92 l 442 64 q 387 -9 337 -9 q 313 -9 299 8 q 285 24 285 64 z m 285 96 l 285 267 q 211 237 189 225 q 151 204 134 180 q 118 157 118 129 q 118 94 139 71 q 160 47 187 47 q 224 47 285 96 z"},"L":{"x_min":0,"x_max":611,"ha":611,"o":"m 573 183 l 589 180 l 533 0 l 20 0 l 20 18 l 45 18 q 87 18 105 45 q 115 61 115 118 l 115 545 q 115 607 102 623 q 83 644 45 644 l 20 644 l 20 662 l 320 662 l 320 644 q 267 645 246 634 q 225 624 217 608 q 209 593 209 534 l 209 118 q 209 77 217 62 q 223 52 235 47 q 247 42 311 42 l 359 42 q 436 42 466 53 q 497 64 522 93 q 548 122 573 183 z"},"3":{"x_min":0,"x_max":500,"ha":500,"o":"m 51 536 q 79 603 122 639 q 166 676 230 676 q 310 676 352 624 q 384 585 384 542 q 384 469 293 392 q 354 368 386 324 q 417 279 417 219 q 417 133 362 70 q 291 -12 156 -12 q 89 -12 65 5 q 41 21 41 41 q 41 55 52 65 q 63 76 80 76 q 92 76 104 72 q 113 70 142 54 q 171 39 183 36 q 201 31 221 31 q 271 31 308 69 q 345 108 345 161 q 345 199 328 236 q 315 263 300 277 q 279 297 242 313 q 206 329 167 329 l 152 329 l 152 343 q 190 348 229 371 q 268 394 286 426 q 303 458 303 497 q 303 547 272 578 q 240 609 193 609 q 118 609 67 528 z"},";":{"x_min":0,"x_max":278,"ha":278,"o":"m 138 461 q 160 461 176 446 q 192 430 192 408 q 192 385 176 369 q 160 354 138 354 q 115 354 99 369 q 83 385 83 408 q 83 430 99 446 q 115 461 138 461 z m 69 -167 l 69 -145 q 120 -128 147 -94 q 175 -59 175 -20 q 175 -10 170 -4 q 167 0 164 0 q 158 0 140 -9 q 131 -14 122 -14 q 98 -14 83 0 q 69 15 69 40 q 69 63 88 81 q 106 98 132 98 q 165 98 190 70 q 215 42 215 -5 q 215 -55 180 -98 q 145 -142 69 -167 z"},"J":{"x_min":0,"x_max":389,"ha":389,"o":"m 100 644 l 100 662 l 383 662 l 383 644 l 359 644 q 319 644 300 620 q 289 604 289 545 l 289 221 q 289 146 272 100 q 256 54 216 19 q 176 -15 119 -15 q 73 -15 47 8 q 21 30 21 60 q 21 83 33 96 q 49 111 70 111 q 86 111 98 101 q 111 90 130 46 q 141 20 159 20 q 172 20 183 36 q 195 52 195 93 l 195 545 q 195 595 188 611 q 184 624 168 632 q 147 644 124 644 z"},"V":{"x_min":0,"x_max":722,"ha":722,"o":"m 710 662 l 710 644 q 675 638 657 622 q 631 598 611 548 l 380 -15 l 362 -15 l 114 556 q 95 600 87 609 q 75 625 57 633 q 39 642 9 644 l 9 662 l 279 662 l 279 644 q 233 640 220 628 q 206 617 206 600 q 206 575 229 523 l 397 135 l 553 519 q 576 575 576 597 q 576 611 562 624 q 548 637 514 643 q 512 643 506 644 l 506 662 z"},"\"":{"x_min":0,"x_max":408,"ha":408,"o":"m 281 392 l 255 535 l 244 594 q 243 606 243 618 q 243 649 257 663 q 271 677 293 677 q 314 677 328 663 q 342 649 342 625 q 342 583 333 535 l 305 392 z m 103 392 l 76 537 q 65 596 65 618 q 65 649 78 663 q 91 677 113 677 q 134 677 148 663 q 163 648 163 625 q 163 605 150 536 l 124 392 z"},"7":{"x_min":0,"x_max":500,"ha":500,"o":"m 101 662 l 456 662 l 456 644 l 235 -14 l 180 -14 l 378 583 l 196 583 q 141 583 117 569 q 76 547 51 500 l 37 505 z"},"S":{"x_min":0,"x_max":556,"ha":556,"o":"m 458 677 l 458 448 l 440 448 q 432 514 409 553 q 386 592 344 615 q 302 638 257 638 q 207 638 173 607 q 140 576 140 537 q 140 506 161 481 q 191 445 305 384 q 398 334 432 307 q 466 281 484 245 q 502 208 502 169 q 502 94 444 39 q 386 -15 294 -15 q 265 -15 240 -11 q 225 -8 177 7 q 129 22 117 22 q 104 22 97 15 q 90 8 87 -15 l 69 -15 l 69 212 l 87 212 q 100 141 121 105 q 143 70 187 46 q 231 23 284 23 q 345 23 380 55 q 416 87 416 131 q 416 156 402 181 q 389 206 360 227 q 341 242 256 289 q 171 337 135 365 q 100 394 81 428 q 62 462 62 503 q 62 574 117 626 q 172 677 256 677 q 309 677 368 651 q 396 639 407 639 q 419 639 427 647 q 436 654 440 677 z"},"}":{"x_min":0,"x_max":480,"ha":480,"o":"m 86 677 l 86 694 q 168 684 219 629 q 270 574 270 506 q 270 471 259 425 q 248 378 248 353 q 248 317 277 287 q 307 256 359 250 l 359 229 q 307 223 277 192 q 248 162 248 126 q 248 101 259 54 q 270 7 270 -28 q 270 -94 219 -149 q 168 -205 86 -216 l 86 -199 q 144 -185 170 -154 q 197 -123 197 -85 q 197 -57 186 -10 q 174 38 174 70 q 174 120 211 167 q 247 213 319 238 q 249 264 211 312 q 174 359 174 408 q 174 441 186 489 q 197 536 197 564 q 197 602 170 633 q 144 664 86 677 z"},"Z":{"x_min":0,"x_max":611,"ha":611,"o":"m 575 662 l 140 40 l 412 40 q 474 40 508 67 q 541 95 567 178 l 583 175 l 552 0 l 13 0 l 13 18 l 438 623 l 226 623 q 173 623 149 611 q 125 600 113 578 q 101 556 90 497 l 72 497 l 85 662 z"},"x":{"x_min":0,"x_max":500,"ha":500,"o":"m 13 447 l 224 447 l 224 429 q 204 429 196 422 q 188 416 188 404 q 188 393 205 368 q 210 360 221 344 l 252 293 l 289 344 q 324 392 324 405 q 324 415 316 422 q 308 429 289 429 l 289 447 l 440 447 l 440 429 q 417 428 399 416 q 375 399 333 344 l 272 262 l 384 102 q 425 43 442 31 q 460 19 488 18 l 488 0 l 277 0 l 277 18 q 299 18 311 27 q 320 34 320 45 q 320 57 289 102 l 224 198 l 152 102 q 119 58 119 49 q 119 38 130 28 q 141 19 163 18 l 163 0 l 17 0 l 17 18 q 34 20 47 30 q 66 44 110 102 l 204 227 l 119 350 q 83 402 63 416 q 43 429 13 429 z"},")":{"x_min":0,"x_max":333,"ha":333,"o":"m 22 674 l 22 694 q 97 658 146 608 q 216 537 254 441 q 292 345 292 241 q 292 89 218 -35 q 143 -160 22 -214 l 22 -196 q 83 -162 121 -105 q 160 -47 179 41 q 198 130 198 226 q 198 330 182 416 q 169 483 151 524 q 133 564 103 602 q 72 640 22 674 z"},"&":{"x_min":0,"x_max":778,"ha":778,"o":"m 510 426 l 715 426 l 715 408 q 673 405 653 389 q 632 374 589 296 q 546 219 493 151 q 536 101 570 80 q 604 60 639 60 q 673 60 696 78 q 720 97 729 132 l 748 119 q 729 50 689 18 q 649 -15 596 -15 q 556 -15 515 7 q 474 28 425 80 q 364 26 316 6 q 267 -15 212 -15 q 131 -15 84 28 q 37 71 37 130 q 37 189 79 248 q 122 307 239 370 q 216 421 208 453 q 199 486 199 516 q 199 599 261 643 q 309 677 370 677 q 428 677 464 643 q 501 608 501 558 q 501 506 466 467 q 430 428 340 382 q 402 271 470 180 q 556 282 556 353 q 556 375 541 393 q 530 406 510 408 z m 324 414 q 384 442 414 479 q 444 516 444 561 q 444 596 423 619 q 401 642 369 642 q 326 642 304 612 q 283 583 283 554 q 283 530 291 501 q 299 471 324 414 z m 399 108 q 335 196 310 237 q 285 277 255 337 q 197 304 167 263 q 138 223 138 175 q 138 123 171 83 q 205 44 262 44 q 293 44 322 56 q 350 68 399 108 z"},"_":{"x_min":0,"x_max":500,"ha":500,"o":"m 509 -216 l -8 -216 l -8 -175 l 509 -175 z"},"v":{"x_min":0,"x_max":500,"ha":500,"o":"m 8 447 l 219 447 l 219 429 l 205 429 q 186 429 176 420 q 166 411 166 395 q 166 378 176 354 l 280 107 l 385 364 q 396 391 396 405 q 396 412 392 417 q 387 424 378 427 q 370 429 345 429 l 345 447 l 491 447 l 491 429 q 465 427 456 419 q 438 404 425 370 l 266 -14 l 246 -14 l 86 364 q 76 390 66 402 q 56 413 41 421 q 33 425 8 429 z"},"O":{"x_min":0,"x_max":722,"ha":722,"o":"m 366 677 q 495 677 589 579 q 684 481 684 335 q 684 184 588 84 q 493 -15 358 -15 q 221 -15 128 82 q 35 179 35 333 q 35 491 143 591 q 236 677 366 677 z m 356 642 q 268 642 214 576 q 147 494 147 335 q 147 173 216 86 q 270 20 357 20 q 450 20 511 92 q 572 165 572 322 q 572 492 505 575 q 451 642 356 642 z"},"(":{"x_min":0,"x_max":333,"ha":333,"o":"m 311 -196 l 311 -214 q 237 -177 188 -127 q 117 -56 79 40 q 41 136 41 240 q 41 391 116 516 q 190 641 311 694 l 311 674 q 250 641 212 583 q 173 525 154 437 q 135 349 135 252 q 135 148 151 62 q 164 -5 182 -46 q 200 -86 231 -124 q 261 -162 311 -196 z"},"C":{"x_min":0,"x_max":667,"ha":667,"o":"m 602 677 l 617 452 l 602 452 q 572 553 516 598 q 459 642 381 642 q 315 642 262 609 q 208 575 178 502 q 147 429 147 320 q 147 230 176 164 q 205 98 263 63 q 321 28 395 28 q 459 28 509 55 q 558 83 617 165 l 632 155 q 583 67 516 26 q 450 -15 358 -15 q 194 -15 104 107 q 36 198 36 321 q 36 420 81 503 q 125 586 203 632 q 281 677 373 677 q 445 677 515 642 q 535 631 544 631 q 557 631 567 641 q 580 654 585 677 z"},"W":{"x_min":0,"x_max":944,"ha":944,"o":"m 936 662 l 936 644 q 910 644 894 635 q 878 625 863 600 q 854 583 833 519 l 648 -15 l 628 -15 l 478 408 l 328 -15 l 310 -15 l 113 535 q 91 596 85 607 q 76 626 59 635 q 42 644 13 644 l 13 662 l 258 662 l 258 644 l 247 644 q 221 644 207 632 q 193 621 193 604 q 193 587 215 525 l 345 154 l 455 470 l 436 525 l 420 570 q 410 594 397 613 q 391 622 381 628 q 369 637 357 641 q 348 644 328 644 l 328 662 l 585 662 l 585 644 l 568 644 q 541 644 528 632 q 515 621 515 601 q 515 576 537 514 l 664 154 l 790 519 q 812 579 812 603 q 812 614 804 624 q 797 633 787 637 q 768 644 738 644 l 738 662 z"},"A":{"x_min":0,"x_max":722,"ha":722,"o":"m 458 222 l 201 222 l 156 117 q 140 79 140 60 q 140 44 154 33 q 168 21 216 18 l 216 0 l 8 0 l 8 18 q 49 25 62 37 q 86 61 117 132 l 350 677 l 367 677 l 597 126 q 625 60 648 40 q 670 21 711 18 l 711 0 l 450 0 l 450 18 q 489 20 503 31 q 517 42 517 59 q 517 80 498 126 z m 444 258 l 332 525 l 216 258 z"},"f":{"x_min":0,"x_max":333,"ha":333,"o":"m 206 412 l 206 118 q 206 56 220 39 q 238 18 268 18 l 309 18 l 309 0 l 42 0 l 42 18 l 62 18 q 81 18 97 27 q 113 37 119 54 q 125 70 125 118 l 125 412 l 39 412 l 39 447 l 125 447 l 125 477 q 125 543 147 590 q 168 636 213 665 q 257 693 312 693 q 363 693 406 660 q 435 638 435 611 q 435 596 422 583 q 409 570 395 570 q 383 570 371 578 q 358 586 340 613 q 322 640 307 649 q 292 658 273 658 q 251 658 235 646 q 220 634 213 609 q 206 584 206 479 l 206 447 l 321 447 l 321 412 z"},"Q":{"x_min":0,"x_max":722,"ha":722,"o":"m 440 -7 q 490 -93 548 -134 q 606 -174 680 -180 l 680 -196 q 612 -193 536 -169 q 459 -144 390 -100 q 322 -57 272 -7 q 202 21 161 53 q 101 100 68 169 q 35 238 35 333 q 35 481 131 579 q 228 677 364 677 q 494 677 589 579 q 684 480 684 331 q 684 209 616 117 q 549 25 440 -7 z m 358 640 q 270 640 215 576 q 147 497 147 333 q 147 172 216 85 q 270 18 358 18 q 450 18 506 85 q 572 164 572 318 q 572 437 536 518 q 508 581 462 610 q 416 640 358 640 z"},"w":{"x_min":0,"x_max":722,"ha":722,"o":"m 6 447 l 194 447 l 194 429 q 168 427 160 420 q 152 413 152 399 q 152 384 160 362 l 256 105 l 352 314 l 327 380 q 315 410 296 421 q 285 428 256 429 l 256 447 l 469 447 l 469 429 q 434 428 419 417 q 409 409 409 392 q 409 382 413 372 l 515 115 l 609 362 q 619 389 619 404 q 619 414 609 421 q 600 428 572 429 l 572 447 l 713 447 l 713 429 q 670 423 650 372 l 501 -14 l 481 -14 l 369 272 l 239 -14 l 221 -14 l 77 362 q 63 398 49 410 q 36 423 6 429 z"},"-":{"x_min":0,"x_max":333,"ha":333,"o":"m 41 261 l 293 261 l 293 188 l 41 188 z"},"E":{"x_min":0,"x_max":611,"ha":611,"o":"m 209 626 l 209 364 l 354 364 q 411 364 430 381 q 456 404 458 460 l 477 460 l 477 230 l 458 230 q 452 278 445 292 q 436 309 416 319 q 396 329 354 329 l 209 329 l 209 110 q 209 66 213 57 q 217 47 227 42 q 236 36 264 36 l 376 36 q 432 36 458 44 q 483 52 506 75 q 537 105 568 166 l 588 166 l 531 0 l 21 0 l 21 18 l 44 18 q 67 18 88 29 q 104 37 110 53 q 115 68 115 117 l 115 547 q 115 610 103 625 q 85 644 44 644 l 21 644 l 21 662 l 531 662 l 538 517 l 519 517 q 509 569 496 589 q 484 608 459 619 q 440 626 391 626 z"},"s":{"x_min":0,"x_max":389,"ha":389,"o":"m 320 460 l 320 308 l 304 308 q 286 380 257 406 q 228 432 183 432 q 148 432 127 414 q 106 396 106 374 q 106 346 122 327 q 137 307 184 284 l 255 250 q 354 201 354 122 q 354 61 308 24 q 262 -14 205 -14 q 164 -14 111 1 q 95 6 84 6 q 73 6 67 -7 l 51 -7 l 51 153 l 67 153 q 81 84 119 50 q 158 15 206 15 q 239 15 260 35 q 282 55 282 83 q 282 116 258 139 q 234 162 164 197 q 93 232 71 261 q 49 289 49 331 q 49 386 87 423 q 125 460 185 460 q 211 460 249 449 q 273 442 282 442 q 290 442 294 445 q 298 449 304 460 z"},">":{"x_min":0,"x_max":564,"ha":564,"o":"m 543 319 l 18 91 l 18 133 l 471 330 l 18 528 l 18 572 l 543 343 z"},"l":{"x_min":0,"x_max":278,"ha":278,"o":"m 185 694 l 185 101 q 185 59 191 45 q 197 32 210 25 q 223 18 257 18 l 257 0 l 38 0 l 38 18 q 69 18 80 24 q 91 30 98 45 q 104 60 104 101 l 104 507 q 104 583 101 600 q 97 618 90 624 q 82 630 70 630 q 58 630 38 623 l 30 640 l 163 694 z"},"8":{"x_min":0,"x_max":500,"ha":500,"o":"m 192 333 q 113 398 91 437 q 68 476 68 518 q 68 583 118 629 q 167 676 250 676 q 330 676 379 632 q 428 589 428 533 q 428 496 401 458 q 375 419 292 367 q 377 300 405 262 q 442 212 442 157 q 442 87 389 38 q 336 -12 250 -12 q 155 -12 103 47 q 61 95 61 151 q 61 195 90 238 q 120 281 192 333 z m 269 386 q 327 438 343 469 q 358 500 358 538 q 358 589 330 618 q 301 647 251 647 q 201 647 170 619 q 139 590 139 551 q 139 526 152 500 q 165 475 188 452 z m 215 315 q 174 281 155 240 q 135 200 135 153 q 135 90 170 52 q 204 15 257 15 q 310 15 342 44 q 374 74 374 117 q 374 152 355 180 q 320 231 215 315 z"},"\\":{"x_min":0,"x_max":278,"ha":278,"o":"m 41 694 l 280 -14 l 241 -14 l 1 694 z"},"e":{"x_min":0,"x_max":444,"ha":444,"o":"m 106 279 q 106 179 155 123 q 204 66 270 66 q 313 66 346 90 q 378 114 400 173 l 416 163 q 405 96 356 41 q 307 -14 232 -14 q 152 -14 94 49 q 37 112 37 218 q 37 333 96 397 q 155 461 244 461 q 319 461 367 411 q 416 362 416 279 z m 106 307 l 313 307 q 311 350 303 368 q 291 395 267 411 q 243 426 216 426 q 176 426 144 395 q 112 363 106 307 z"},"b":{"x_min":0,"x_max":500,"ha":500,"o":"m 154 370 q 219 460 294 460 q 363 460 414 402 q 465 343 465 241 q 465 122 386 49 q 318 -14 235 -14 q 196 -14 156 0 q 115 15 73 43 l 73 506 q 73 583 70 600 q 66 618 58 624 q 50 630 39 630 q 25 630 4 623 l -2 640 l 132 694 l 154 694 z m 154 339 l 154 71 q 179 47 205 34 q 232 22 260 22 q 304 22 343 71 q 381 120 381 213 q 381 299 343 345 q 304 391 255 391 q 229 391 204 378 q 184 368 154 339 z"},"%":{"x_min":0,"x_max":833,"ha":833,"o":"m 680 677 l 197 -27 l 154 -27 l 636 677 z m 178 677 q 244 677 280 623 q 316 568 316 497 q 316 412 275 366 q 234 319 177 319 q 138 319 106 341 q 74 362 54 404 q 35 446 35 497 q 35 548 55 592 q 74 635 108 656 q 142 677 178 677 z m 176 650 q 151 650 132 621 q 113 591 113 498 q 113 430 124 394 q 132 367 149 353 q 160 344 175 344 q 198 344 215 369 q 239 407 239 495 q 239 587 215 625 q 200 650 176 650 z m 657 329 q 692 329 726 307 q 761 285 780 243 q 798 201 798 150 q 798 64 757 18 q 715 -27 659 -27 q 623 -27 590 -5 q 556 17 537 57 q 518 98 518 150 q 518 202 537 244 q 556 287 590 308 q 623 329 657 329 z m 658 303 q 634 303 617 276 q 595 242 595 147 q 595 60 618 25 q 634 0 658 0 q 680 0 698 27 q 721 62 721 149 q 721 241 698 278 q 682 303 658 303 z"},"m":{"x_min":0,"x_max":778,"ha":778,"o":"m 164 365 q 213 414 222 421 q 244 440 269 450 q 294 460 319 460 q 361 460 392 436 q 422 412 432 365 q 482 424 517 442 q 552 460 588 460 q 624 460 652 442 q 679 424 695 382 q 706 354 706 293 l 706 101 q 706 59 712 43 q 717 33 730 25 q 744 18 773 18 l 773 0 l 553 0 l 553 18 l 562 18 q 591 18 607 29 q 618 37 623 54 q 625 62 625 101 l 625 293 q 625 348 612 371 q 593 402 551 402 q 525 402 499 389 q 473 376 436 341 l 435 335 l 436 314 l 436 101 q 436 55 441 44 q 446 33 460 25 q 474 18 508 18 l 508 0 l 282 0 l 282 18 q 319 18 333 26 q 347 35 353 53 q 355 61 355 101 l 355 293 q 355 348 339 372 q 317 403 279 403 q 252 403 227 389 q 186 368 164 341 l 164 101 q 164 57 170 44 q 176 31 188 24 q 200 18 237 18 l 237 0 l 16 0 l 16 18 q 46 18 59 24 q 71 31 77 45 q 83 60 83 101 l 83 272 q 83 346 79 367 q 76 383 68 389 q 61 396 48 396 q 35 396 16 388 l 8 406 l 143 460 l 164 460 z"},"#":{"x_min":0,"x_max":500,"ha":500,"o":"m 56 -14 l 102 208 l 18 208 l 18 249 l 109 249 l 143 416 l 18 416 l 18 455 l 152 455 l 197 677 l 237 677 l 193 455 l 357 455 l 405 677 l 445 677 l 399 455 l 482 455 l 482 416 l 392 416 l 357 249 l 482 249 l 482 208 l 349 208 l 304 -14 l 264 -14 l 309 208 l 143 208 l 97 -14 z m 150 249 l 316 249 l 351 416 l 185 416 z"},",":{"x_min":0,"x_max":250,"ha":250,"o":"m 54 -167 l 54 -145 q 104 -128 132 -94 q 159 -59 159 -20 q 159 -10 155 -4 q 151 0 148 0 q 143 0 125 -9 q 116 -14 106 -14 q 82 -14 68 0 q 54 15 54 40 q 54 63 72 81 q 90 98 117 98 q 149 98 174 70 q 199 42 199 -5 q 199 -55 164 -98 q 129 -142 54 -167 z"},"n":{"x_min":0,"x_max":500,"ha":500,"o":"m 162 366 q 240 460 312 460 q 348 460 375 442 q 401 424 417 382 q 427 353 427 292 l 427 101 q 427 59 434 43 q 439 31 451 24 q 463 18 496 18 l 496 0 l 274 0 l 274 18 l 284 18 q 315 18 327 27 q 340 37 345 55 q 347 62 347 101 l 347 284 q 347 345 331 373 q 315 400 277 400 q 219 400 162 337 l 162 101 q 162 56 167 45 q 174 31 186 24 q 198 18 234 18 l 234 0 l 13 0 l 13 18 l 23 18 q 57 18 69 35 q 81 52 81 101 l 81 267 q 81 348 77 365 q 74 383 66 389 q 59 396 46 396 q 32 396 13 388 l 6 406 l 141 460 l 162 460 z"},"h":{"x_min":0,"x_max":500,"ha":500,"o":"m 163 694 l 163 367 q 217 427 249 444 q 280 460 312 460 q 350 460 377 439 q 405 418 418 374 q 427 342 427 259 l 427 101 q 427 59 434 43 q 439 31 451 24 q 462 18 494 18 l 494 0 l 274 0 l 274 18 l 284 18 q 315 18 328 27 q 340 37 345 55 q 346 63 346 101 l 346 259 q 346 333 339 355 q 331 378 314 390 q 298 401 274 401 q 250 401 225 389 q 199 376 163 337 l 163 101 q 163 55 168 44 q 173 33 187 25 q 201 18 235 18 l 235 0 l 13 0 l 13 18 q 43 18 60 27 q 70 32 76 45 q 82 59 82 101 l 82 506 q 82 583 78 600 q 74 618 67 624 q 59 630 46 630 q 36 630 13 623 l 6 640 l 140 694 z"},"z":{"x_min":0,"x_max":444,"ha":444,"o":"m 420 137 l 415 0 l 20 0 l 20 18 l 317 413 l 170 413 q 123 413 108 407 q 94 401 84 384 q 71 359 69 323 l 50 323 l 53 447 l 428 447 l 428 429 l 128 33 l 291 33 q 342 33 361 41 q 379 50 390 71 q 398 87 403 137 z"},"B":{"x_min":0,"x_max":667,"ha":667,"o":"m 462 338 q 531 323 565 291 q 612 246 612 181 q 612 132 581 87 q 550 42 495 21 q 441 0 329 0 l 17 0 l 17 18 l 42 18 q 83 18 101 44 q 112 62 112 117 l 112 545 q 112 606 98 623 q 79 644 42 644 l 17 644 l 17 662 l 303 662 q 383 662 431 650 q 504 633 543 588 q 582 543 582 485 q 582 436 551 396 q 521 357 462 338 z m 206 364 q 224 361 247 359 q 271 357 298 357 q 370 357 406 373 q 441 388 460 420 q 479 452 479 489 q 479 547 432 588 q 385 629 294 629 q 245 629 206 619 z m 206 48 q 263 35 318 35 q 406 35 453 74 q 499 114 499 173 q 499 211 478 247 q 457 283 410 303 q 362 324 292 324 q 262 324 241 323 q 219 322 206 319 z"},"K":{"x_min":0,"x_max":722,"ha":722,"o":"m 299 367 l 543 125 q 603 64 646 43 q 688 21 730 18 l 730 0 l 416 0 l 416 18 q 444 18 456 28 q 469 37 469 49 q 469 61 464 70 q 459 79 434 104 l 205 331 l 205 117 q 205 67 211 51 q 216 39 232 30 q 253 18 276 18 l 299 18 l 299 0 l 17 0 l 17 18 l 40 18 q 81 18 100 42 q 111 58 111 117 l 111 545 q 111 595 105 612 q 100 624 85 632 q 63 644 40 644 l 17 644 l 17 662 l 299 662 l 299 644 l 276 644 q 253 644 232 633 q 217 625 211 609 q 205 594 205 545 l 205 342 q 215 352 272 404 q 417 537 447 582 q 460 601 460 616 q 460 627 450 635 q 440 644 416 644 l 400 644 l 400 662 l 644 662 l 644 644 q 622 644 604 638 q 587 633 562 617 q 536 602 499 568 q 488 558 400 468 z"},"R":{"x_min":0,"x_max":667,"ha":667,"o":"m 676 0 l 499 0 l 275 310 q 250 309 234 309 q 228 309 221 309 q 213 309 206 310 l 206 117 q 206 55 219 40 q 238 18 275 18 l 301 18 l 301 0 l 17 0 l 17 18 l 42 18 q 84 18 102 45 q 112 61 112 117 l 112 545 q 112 607 99 623 q 80 644 42 644 l 17 644 l 17 662 l 258 662 q 364 662 414 647 q 464 631 499 590 q 534 549 534 492 q 534 431 494 386 q 454 341 371 322 l 507 132 q 554 67 588 45 q 622 24 676 18 z m 206 340 q 215 340 222 340 q 229 340 233 340 q 328 340 376 381 q 424 422 424 485 q 424 547 385 586 q 346 625 282 625 q 254 625 206 616 z"},"T":{"x_min":0,"x_max":611,"ha":611,"o":"m 579 662 l 586 507 l 567 507 q 562 548 553 565 q 538 594 512 607 q 487 621 446 621 l 353 621 l 353 115 q 353 54 366 39 q 385 18 423 18 l 446 18 l 446 0 l 166 0 l 166 18 l 189 18 q 231 18 249 43 q 259 59 259 115 l 259 621 l 180 621 q 133 621 114 614 q 88 604 70 578 q 52 552 49 507 l 30 507 l 38 662 z"},"P":{"x_min":0,"x_max":556,"ha":556,"o":"m 205 310 l 205 117 q 205 55 219 40 q 237 18 275 18 l 300 18 l 300 0 l 17 0 l 17 18 l 42 18 q 83 18 102 45 q 111 61 111 117 l 111 545 q 111 607 98 623 q 79 644 42 644 l 17 644 l 17 662 l 259 662 q 348 662 399 644 q 451 625 486 582 q 521 539 521 479 q 521 398 468 347 q 414 296 316 296 q 292 296 265 300 q 237 303 205 310 z m 205 338 q 231 333 251 331 q 271 328 285 328 q 336 328 373 367 q 410 407 410 469 q 410 512 392 549 q 375 586 342 604 q 310 623 269 623 q 244 623 205 613 z"},"|":{"x_min":0,"x_max":200,"ha":200,"o":"m 119 694 l 119 -216 l 79 -216 l 79 694 z"},"t":{"x_min":0,"x_max":278,"ha":278,"o":"m 161 594 l 161 447 l 266 447 l 266 413 l 161 413 l 161 123 q 161 80 174 64 q 186 49 206 49 q 222 49 237 59 q 252 69 260 89 l 279 89 q 262 41 231 17 q 200 -7 167 -7 q 144 -7 123 5 q 101 18 91 41 q 81 64 81 112 l 81 413 l 10 413 l 10 429 q 37 440 65 466 q 93 491 115 526 q 126 545 146 594 z"},"M":{"x_min":0,"x_max":889,"ha":889,"o":"m 409 0 l 153 557 l 153 115 q 153 54 167 39 q 185 18 224 18 l 247 18 l 247 0 l 17 0 l 17 18 l 40 18 q 82 18 100 43 q 110 59 110 115 l 110 547 q 110 591 101 611 q 94 625 75 635 q 57 644 17 644 l 17 662 l 204 662 l 444 144 l 681 662 l 868 662 l 868 644 l 845 644 q 803 644 785 619 q 774 603 774 547 l 774 115 q 774 54 788 39 q 806 18 845 18 l 868 18 l 868 0 l 587 0 l 587 18 l 610 18 q 653 18 670 43 q 681 59 681 115 l 681 557 l 425 0 z"},"g":{"x_min":0,"x_max":500,"ha":500,"o":"m 151 163 q 110 183 88 219 q 66 255 66 298 q 66 365 116 413 q 166 460 244 460 q 308 460 355 429 l 450 429 q 471 429 474 428 q 478 427 479 424 q 482 419 482 408 q 482 396 479 391 q 478 388 474 387 q 471 385 450 385 l 392 385 q 419 350 419 295 q 419 233 371 188 q 323 144 243 144 q 209 144 175 154 q 153 135 146 121 q 138 107 138 98 q 138 89 146 82 q 154 74 178 70 q 191 68 246 67 q 347 64 376 60 q 422 54 449 26 q 476 -1 476 -41 q 476 -96 424 -145 q 348 -216 226 -216 q 131 -216 66 -173 q 30 -149 30 -123 q 30 -111 35 -99 q 43 -81 69 -49 q 73 -44 119 4 q 94 19 83 31 q 73 43 73 58 q 73 75 87 98 q 101 121 151 163 z m 236 437 q 200 437 175 408 q 151 379 151 320 q 151 243 184 200 q 209 168 249 168 q 286 168 310 196 q 333 224 333 283 q 333 361 300 405 q 275 437 236 437 z m 146 0 q 123 -25 111 -46 q 100 -68 100 -86 q 100 -109 128 -127 q 177 -157 269 -157 q 357 -157 399 -126 q 440 -95 440 -60 q 440 -35 416 -24 q 390 -13 315 -11 q 205 -8 146 0 z"},"j":{"x_min":0,"x_max":278,"ha":278,"o":"m 145 695 q 166 695 180 680 q 195 666 195 645 q 195 624 180 609 q 166 595 145 595 q 124 595 109 609 q 95 624 95 645 q 95 666 109 680 q 124 695 145 695 z m 187 460 l 187 10 q 187 -104 138 -160 q 89 -216 11 -216 q -34 -216 -55 -200 q -77 -184 -77 -167 q -77 -149 -65 -137 q -53 -125 -37 -125 q -24 -125 -11 -131 q -2 -135 21 -156 q 45 -177 61 -177 q 73 -177 84 -168 q 95 -159 101 -138 q 106 -117 106 -46 l 106 272 q 106 346 102 367 q 98 383 91 389 q 83 396 71 396 q 57 396 38 388 l 31 406 l 166 460 z"},"i":{"x_min":0,"x_max":278,"ha":278,"o":"m 145 694 q 166 694 180 680 q 194 666 194 645 q 194 625 180 610 q 166 595 145 595 q 125 595 110 610 q 95 625 95 645 q 95 666 110 680 q 124 694 145 694 z m 186 460 l 186 101 q 186 59 192 45 q 198 31 210 24 q 222 18 253 18 l 253 0 l 36 0 l 36 18 q 69 18 80 24 q 91 30 98 45 q 104 60 104 101 l 104 273 q 104 346 100 368 q 97 383 89 389 q 82 396 69 396 q 56 396 36 388 l 29 406 l 164 460 z"},"y":{"x_min":0,"x_max":500,"ha":500,"o":"m 6 447 l 214 447 l 214 429 l 204 429 q 182 429 171 420 q 160 410 160 396 q 160 377 176 343 l 285 118 l 385 365 q 394 385 394 404 q 394 413 390 417 q 386 423 378 426 q 370 429 349 429 l 349 447 l 494 447 l 494 429 q 476 427 466 421 q 457 416 445 399 q 440 393 428 362 l 246 -84 q 220 -149 177 -183 q 134 -216 95 -216 q 66 -216 47 -199 q 29 -183 29 -161 q 29 -141 42 -128 q 56 -116 79 -116 q 95 -116 123 -126 q 143 -134 147 -134 q 162 -134 179 -119 q 197 -104 214 -60 l 246 18 l 85 355 q 78 370 62 393 q 50 410 42 416 q 31 423 6 429 z"},"@":{"x_min":0,"x_max":921,"ha":921,"o":"m 688 468 l 630 273 q 599 164 592 134 q 585 105 585 87 q 585 72 595 61 q 606 50 622 50 q 657 50 707 86 q 757 122 793 202 q 829 282 829 369 q 829 452 788 523 q 748 594 675 632 q 601 669 512 669 q 399 669 303 610 q 206 550 150 438 q 93 325 93 204 q 93 92 143 0 q 192 -92 282 -139 q 372 -186 476 -186 q 604 -186 708 -117 q 812 -48 868 84 l 896 84 q 853 -50 737 -133 q 621 -216 473 -216 q 357 -216 257 -161 q 158 -106 103 -5 q 47 96 47 217 q 47 346 108 457 q 168 569 278 632 q 387 694 509 694 q 610 694 692 653 q 773 611 815 531 q 858 450 858 360 q 858 271 818 183 q 778 95 717 55 q 655 15 588 15 q 551 15 532 33 q 514 50 514 82 q 514 109 522 154 q 450 66 407 41 q 363 15 330 15 q 295 15 269 46 q 242 77 242 128 q 242 199 288 287 q 334 375 410 430 q 466 471 511 471 q 543 471 565 454 q 587 437 595 403 l 611 457 z m 516 448 q 479 448 442 409 q 387 353 348 256 q 319 186 319 143 q 319 112 336 93 q 354 74 375 74 q 403 74 435 95 q 466 117 500 161 q 534 206 550 251 q 577 329 577 377 q 577 410 559 429 q 542 448 516 448 z"},".":{"x_min":0,"x_max":250,"ha":250,"o":"m 125 95 q 148 95 164 79 q 179 63 179 41 q 179 18 163 2 q 147 -14 125 -14 q 103 -14 87 2 q 71 18 71 41 q 71 63 87 79 q 103 95 125 95 z"},"p":{"x_min":0,"x_max":500,"ha":500,"o":"m -1 403 l 137 458 l 155 458 l 155 354 q 190 413 225 437 q 260 460 298 460 q 366 460 411 408 q 466 343 466 240 q 466 124 399 48 q 345 -14 262 -14 q 226 -14 199 -3 q 180 4 155 26 l 155 -110 q 155 -156 161 -169 q 167 -181 180 -188 q 194 -196 231 -196 l 231 -214 l -3 -214 l -3 -196 l 9 -196 q 36 -196 55 -186 q 64 -180 69 -168 q 74 -156 74 -107 l 74 315 q 74 359 70 371 q 66 382 58 388 q 49 394 35 394 q 23 394 5 387 z m 155 325 l 155 158 q 155 104 160 87 q 167 59 193 37 q 220 16 260 16 q 309 16 339 54 q 379 104 379 194 q 379 296 334 352 q 303 390 260 390 q 236 390 213 378 q 196 369 155 325 z"},"X":{"x_min":0,"x_max":722,"ha":722,"o":"m 408 367 l 550 155 q 609 67 638 44 q 667 21 710 18 l 710 0 l 426 0 l 426 18 q 455 19 468 24 q 479 28 485 37 q 492 46 492 56 q 492 67 487 78 q 484 86 460 121 l 348 291 l 209 113 q 188 85 183 75 q 179 66 179 56 q 179 40 192 30 q 205 20 242 18 l 242 0 l 7 0 l 7 18 q 32 21 50 28 q 81 41 108 62 q 135 84 170 128 l 327 326 l 196 517 q 143 594 106 618 q 69 643 21 644 l 21 662 l 327 662 l 327 644 q 288 643 273 631 q 259 620 259 606 q 259 588 282 554 l 384 402 l 501 551 q 522 577 527 587 q 531 597 531 607 q 531 617 525 625 q 518 635 507 639 q 496 644 460 644 l 460 662 l 695 662 l 695 644 q 667 643 650 635 q 624 624 602 605 q 580 586 540 535 z"},"*":{"x_min":0,"x_max":500,"ha":500,"o":"m 241 510 q 239 543 228 577 q 211 625 211 643 q 211 668 223 681 q 235 694 252 694 q 268 694 279 681 q 290 668 290 644 q 290 622 277 582 q 264 543 261 510 q 288 527 310 551 q 343 590 359 599 q 375 608 392 608 q 408 608 419 597 q 430 586 430 571 q 430 553 414 539 q 397 525 333 511 q 295 502 271 492 q 296 479 333 472 q 392 461 410 445 q 428 429 428 410 q 428 395 417 384 q 406 374 392 374 q 377 374 359 384 q 341 394 311 430 q 291 454 261 475 q 262 447 272 414 q 290 356 290 335 q 290 316 278 302 q 267 289 253 289 q 235 289 221 303 q 210 313 210 336 q 210 359 222 392 q 233 425 236 438 q 239 450 241 475 q 212 456 191 432 q 155 392 137 381 q 125 374 111 374 q 94 374 83 385 q 71 396 71 410 q 71 422 81 435 q 91 449 111 458 q 124 463 171 473 q 201 479 230 492 q 204 505 167 512 q 107 525 93 535 q 71 551 71 574 q 71 587 82 598 q 93 609 107 609 q 124 609 142 599 q 160 589 187 558 q 213 527 241 510 z"},"Y":{"x_min":0,"x_max":722,"ha":722,"o":"m 477 662 l 708 662 l 708 644 l 695 644 q 682 644 658 633 q 633 622 613 601 q 593 580 564 532 l 404 281 l 404 115 q 404 54 418 39 q 437 18 477 18 l 498 18 l 498 0 l 217 0 l 217 18 l 240 18 q 282 18 300 43 q 311 59 311 115 l 311 271 l 129 549 q 97 598 85 610 q 74 622 38 639 q 28 644 9 644 l 9 662 l 292 662 l 292 644 l 278 644 q 255 644 236 633 q 216 623 216 601 q 216 583 246 538 l 384 324 l 514 528 q 543 574 543 597 q 543 610 536 621 q 529 632 516 638 q 503 644 477 644 z"},"c":{"x_min":0,"x_max":444,"ha":444,"o":"m 411 170 q 393 82 340 34 q 288 -14 224 -14 q 147 -14 91 50 q 34 114 34 223 q 34 329 97 395 q 160 460 248 460 q 313 460 356 426 q 398 391 398 353 q 398 334 386 323 q 375 312 353 312 q 324 312 310 330 q 301 340 299 369 q 296 398 279 413 q 262 428 231 428 q 183 428 153 392 q 113 344 113 265 q 113 185 153 124 q 192 62 259 62 q 307 62 345 95 q 372 118 397 177 z"},"!":{"x_min":0,"x_max":333,"ha":333,"o":"m 176 175 l 157 175 l 114 571 q 111 597 111 609 q 111 640 128 659 q 144 677 167 677 q 190 677 206 659 q 222 640 222 604 q 222 592 220 571 z m 166 94 q 188 94 204 78 q 220 62 220 41 q 220 18 204 2 q 188 -14 166 -14 q 144 -14 128 2 q 112 18 112 41 q 112 62 128 78 q 144 94 166 94 z"},"/":{"x_min":0,"x_max":278,"ha":278,"o":"m 280 694 l 41 -14 l 1 -14 l 241 694 z"},"[":{"x_min":0,"x_max":333,"ha":333,"o":"m 297 -198 l 82 -198 l 82 677 l 297 677 l 297 639 l 155 639 l 155 -160 l 297 -160 z"},"6":{"x_min":0,"x_max":500,"ha":500,"o":"m 448 676 l 448 658 q 384 651 343 632 q 302 613 262 573 q 223 534 197 485 q 170 437 153 370 q 223 418 294 418 q 362 418 412 363 q 461 309 461 223 q 461 140 411 71 q 351 -12 251 -12 q 183 -12 136 33 q 43 121 43 260 q 43 349 79 429 q 114 509 180 571 q 247 633 307 654 q 368 676 420 676 z m 145 334 q 136 268 136 228 q 136 181 153 126 q 170 71 205 39 q 229 16 265 16 q 308 16 341 56 q 375 96 375 170 q 375 253 341 314 q 308 375 247 375 q 229 375 207 368 q 186 360 145 334 z"},"r":{"x_min":0,"x_max":333,"ha":333,"o":"m 162 460 l 162 360 q 218 460 277 460 q 304 460 322 444 q 339 428 339 406 q 339 387 327 374 q 314 361 296 361 q 279 361 258 378 q 237 395 227 395 q 218 395 208 385 q 186 365 162 319 l 162 104 q 162 67 171 48 q 178 35 194 26 q 210 18 240 18 l 240 0 l 11 0 l 11 18 q 45 18 62 28 q 74 36 79 53 q 82 62 82 101 l 82 274 q 82 352 78 367 q 75 382 67 389 q 58 396 45 396 q 30 396 11 388 l 6 406 l 142 460 z"},"2":{"x_min":0,"x_max":500,"ha":500,"o":"m 458 127 l 412 0 l 21 0 l 21 18 q 194 175 264 275 q 334 375 334 457 q 334 520 296 561 q 257 601 204 601 q 155 601 116 573 q 77 544 59 489 l 41 489 q 53 579 103 627 q 154 676 229 676 q 310 676 364 624 q 418 572 418 502 q 418 452 395 401 q 358 322 277 234 q 156 101 125 74 l 298 74 q 351 74 372 78 q 394 82 411 94 q 428 105 440 127 z"},"{":{"x_min":0,"x_max":480,"ha":480,"o":"m 411 -199 l 411 -216 q 329 -205 278 -150 q 227 -95 227 -28 q 227 7 238 54 q 250 101 250 126 q 250 162 220 192 q 190 223 138 229 l 138 250 q 190 256 220 287 q 250 317 250 353 q 250 378 238 425 q 227 471 227 507 q 227 573 278 628 q 329 684 411 694 l 411 677 q 354 664 327 633 q 300 602 300 564 q 300 536 311 489 q 322 441 322 408 q 322 359 286 312 q 250 266 178 241 q 249 215 285 167 q 322 120 322 71 q 322 38 311 -10 q 300 -57 300 -85 q 300 -123 327 -154 q 354 -185 411 -199 z"},"9":{"x_min":0,"x_max":500,"ha":500,"o":"m 53 -14 l 53 4 q 116 5 171 34 q 226 62 277 134 q 328 205 348 291 q 271 241 209 241 q 139 241 89 295 q 40 349 40 438 q 40 525 89 593 q 149 676 246 676 q 328 676 386 608 q 457 525 457 402 q 457 292 403 197 q 349 101 252 38 q 173 -14 81 -14 z m 355 327 q 364 390 364 428 q 364 476 348 531 q 332 585 302 615 q 273 644 235 644 q 192 644 159 605 q 126 566 126 489 q 126 386 170 328 q 202 286 248 286 q 271 286 301 296 q 332 307 355 327 z"}," ":{"x_min":0,"x_max":250,"ha":250,"o":""},"I":{"x_min":0,"x_max":333,"ha":333,"o":"m 309 18 l 309 0 l 25 0 l 25 18 l 48 18 q 89 18 108 42 q 120 58 120 117 l 120 545 q 120 595 113 611 q 108 624 93 632 q 72 644 48 644 l 25 644 l 25 662 l 309 662 l 309 644 l 285 644 q 244 644 226 620 q 213 604 213 545 l 213 117 q 213 67 220 51 q 225 39 240 30 q 261 18 285 18 z"},"H":{"x_min":0,"x_max":722,"ha":722,"o":"m 206 355 l 513 355 l 513 544 q 513 595 507 611 q 502 624 486 632 q 465 644 442 644 l 418 644 l 418 662 l 702 662 l 702 644 l 678 644 q 655 644 634 633 q 618 625 613 609 q 607 593 607 544 l 607 117 q 607 67 613 51 q 618 39 633 30 q 655 18 678 18 l 702 18 l 702 0 l 418 0 l 418 18 l 442 18 q 482 18 501 42 q 513 58 513 117 l 513 319 l 206 319 l 206 117 q 206 67 212 51 q 217 39 232 30 q 253 18 277 18 l 301 18 l 301 0 l 17 0 l 17 18 l 41 18 q 82 18 100 42 q 112 58 112 117 l 112 544 q 112 595 105 611 q 101 624 85 632 q 64 644 41 644 l 17 644 l 17 662 l 301 662 l 301 644 l 277 644 q 253 644 232 633 q 217 625 211 609 q 206 593 206 544 z"},"4":{"x_min":0,"x_max":500,"ha":500,"o":"m 465 244 l 465 175 l 376 175 l 376 0 l 296 0 l 296 175 l 16 175 l 16 237 l 323 676 l 376 676 l 376 244 z m 296 244 l 296 573 l 63 244 z"},"~":{"x_min":0,"x_max":541,"ha":541,"o":"m 509 330 l 531 330 q 529 266 495 230 q 460 194 411 194 q 389 194 363 202 q 337 209 229 253 q 154 285 122 285 q 88 285 64 264 q 41 243 31 195 l 10 195 q 13 261 46 296 q 79 331 124 331 q 146 331 168 324 q 219 310 302 274 q 384 239 418 239 q 455 239 479 262 q 504 286 509 330 z"},"D":{"x_min":0,"x_max":722,"ha":722,"o":"m 17 0 l 17 18 l 42 18 q 84 18 102 45 q 112 61 112 117 l 112 545 q 112 607 99 623 q 80 644 42 644 l 17 644 l 17 662 l 287 662 q 435 662 512 628 q 590 595 637 516 q 684 438 684 334 q 684 196 600 104 q 506 0 313 0 z m 206 48 q 268 34 310 34 q 423 34 498 114 q 573 193 573 330 q 573 467 498 546 q 423 625 306 625 q 262 625 206 611 z"},"^":{"x_min":0,"x_max":469,"ha":469,"o":"m 243 676 l 451 326 l 406 326 l 235 612 l 64 326 l 18 326 l 229 676 z"},"0":{"x_min":0,"x_max":500,"ha":500,"o":"m 36 327 q 36 440 70 522 q 104 604 161 644 q 205 676 252 676 q 328 676 389 598 q 464 502 464 337 q 464 222 431 142 q 398 61 346 25 q 295 -12 247 -12 q 152 -12 89 100 q 36 194 36 327 z m 132 315 q 132 178 166 92 q 193 19 249 19 q 275 19 303 43 q 332 66 346 122 q 369 206 369 359 q 369 472 345 548 q 328 604 300 627 q 280 644 251 644 q 218 644 192 614 q 157 573 145 486 q 132 399 132 315 z"},"F":{"x_min":0,"x_max":556,"ha":556,"o":"m 205 626 l 205 366 l 325 366 q 367 366 386 384 q 405 402 412 457 l 430 457 l 430 232 l 412 232 q 411 271 402 289 q 392 307 375 316 q 358 325 325 325 l 205 325 l 205 117 q 205 67 211 51 q 216 39 231 30 q 253 18 276 18 l 300 18 l 300 0 l 16 0 l 16 18 l 40 18 q 81 18 99 42 q 111 58 111 117 l 111 545 q 111 595 104 611 q 100 624 84 632 q 63 644 40 644 l 16 644 l 16 662 l 509 662 l 515 517 l 498 517 q 485 563 469 585 q 452 606 427 616 q 402 626 351 626 z"},"`":{"x_min":0,"x_max":333,"ha":333,"o":"m 58 679 l 167 679 l 218 510 l 201 510 z"},"k":{"x_min":0,"x_max":500,"ha":500,"o":"m 164 694 l 164 249 l 277 353 q 313 386 319 395 q 323 401 323 407 q 323 417 315 424 q 307 431 289 432 l 289 447 l 483 447 l 483 432 q 443 431 416 419 q 390 408 358 379 l 243 273 l 358 128 q 406 68 422 52 q 446 29 463 22 q 476 18 506 18 l 506 0 l 289 0 l 289 18 q 307 18 314 23 q 320 28 320 38 q 320 49 301 74 l 164 249 l 164 101 q 164 57 170 43 q 176 30 187 24 q 198 18 236 18 l 236 0 l 8 0 l 8 18 q 42 18 60 26 q 70 31 75 42 q 83 59 83 98 l 83 505 q 83 583 79 600 q 76 618 68 624 q 60 631 47 631 q 37 631 17 623 l 8 640 l 141 694 z"},"u":{"x_min":0,"x_max":500,"ha":500,"o":"m 423 447 l 423 176 q 423 99 427 81 q 431 64 439 57 q 447 50 458 50 q 473 50 492 59 l 499 42 l 365 -14 l 343 -14 l 343 81 q 285 19 255 2 q 225 -14 191 -14 q 153 -14 126 8 q 98 30 87 64 q 77 98 77 161 l 77 360 q 77 392 70 404 q 63 417 50 423 q 36 430 1 429 l 1 447 l 158 447 l 158 148 q 158 85 179 66 q 201 46 232 46 q 253 46 280 60 q 306 73 343 110 l 343 363 q 343 401 329 415 q 315 428 271 429 l 271 447 z"},"]":{"x_min":0,"x_max":333,"ha":333,"o":"m 37 677 l 251 677 l 251 -199 l 37 -199 l 37 -160 l 178 -160 l 178 639 l 37 639 z"},"U":{"x_min":0,"x_max":722,"ha":722,"o":"m 477 644 l 477 662 l 711 662 l 711 644 l 687 644 q 647 644 626 611 q 616 596 616 541 l 616 272 q 616 173 596 118 q 577 63 519 24 q 461 -16 361 -16 q 253 -16 197 22 q 141 60 117 123 q 102 167 102 286 l 102 545 q 102 606 85 625 q 68 644 30 644 l 5 644 l 5 662 l 292 662 l 292 644 l 266 644 q 225 644 208 618 q 195 601 195 545 l 195 256 q 195 218 202 168 q 209 118 228 90 q 247 62 281 44 q 316 26 367 26 q 432 26 483 55 q 535 83 553 127 q 572 171 572 277 l 572 545 q 572 607 559 623 q 540 644 502 644 z"},"o":{"x_min":0,"x_max":500,"ha":500,"o":"m 250 460 q 352 460 413 383 q 465 317 465 232 q 465 172 437 110 q 408 49 357 18 q 307 -14 245 -14 q 144 -14 84 67 q 34 135 34 219 q 34 281 64 342 q 95 402 145 431 q 194 460 250 460 z m 235 429 q 209 429 183 413 q 157 398 141 359 q 125 321 125 260 q 125 163 163 92 q 202 21 266 21 q 313 21 344 60 q 375 99 375 194 q 375 313 323 382 q 289 429 235 429 z"},"N":{"x_min":0,"x_max":722,"ha":722,"o":"m -13 662 l 167 662 l 571 166 l 571 547 q 571 608 558 624 q 540 644 500 644 l 478 644 l 478 662 l 708 662 l 708 644 l 685 644 q 643 644 625 619 q 614 603 614 547 l 614 -11 l 597 -11 l 160 522 l 160 115 q 160 54 173 39 q 192 18 230 18 l 254 18 l 254 0 l 23 0 l 23 18 l 46 18 q 89 18 106 43 q 117 59 117 115 l 117 575 q 88 609 73 620 q 59 630 30 640 q 16 644 -13 644 z"},"+":{"x_min":0,"x_max":564,"ha":564,"o":"m 261 69 l 261 312 l 18 312 l 18 353 l 261 353 l 261 595 l 300 595 l 300 353 l 544 353 l 544 312 l 300 312 l 300 69 z"},"G":{"x_min":0,"x_max":722,"ha":722,"o":"m 614 677 l 631 468 l 614 468 q 588 546 547 586 q 488 643 395 643 q 269 643 203 543 q 147 458 147 342 q 147 247 184 169 q 221 91 280 54 q 339 18 402 18 q 438 18 473 27 q 507 37 539 55 l 539 246 q 539 296 531 311 q 523 327 508 335 q 492 343 452 343 l 452 361 l 708 361 l 708 343 l 696 343 q 658 343 644 317 q 634 299 634 246 l 634 43 q 578 13 523 -1 q 468 -15 401 -15 q 209 -15 110 108 q 35 200 35 321 q 35 408 77 488 q 127 583 214 635 q 287 677 386 677 q 422 677 451 671 q 481 666 535 646 q 562 635 572 635 q 581 635 588 644 q 594 652 596 677 z"},"q":{"x_min":0,"x_max":500,"ha":500,"o":"m 427 460 l 427 -115 q 427 -158 433 -170 q 439 -182 451 -189 q 464 -196 500 -196 l 500 -214 l 274 -214 l 274 -196 l 284 -196 q 311 -196 325 -188 q 335 -183 341 -169 q 347 -155 347 -115 l 347 78 q 302 25 269 6 q 236 -14 200 -14 q 135 -14 84 45 q 33 104 33 204 q 33 317 101 389 q 168 460 263 460 q 291 460 314 453 q 338 445 356 429 q 385 443 411 460 z m 347 108 l 347 318 q 347 355 337 376 q 328 397 303 412 q 279 426 248 426 q 193 426 154 380 q 115 333 115 239 q 115 149 155 102 q 195 55 251 55 q 280 55 302 68 q 325 80 347 108 z"},"d":{"x_min":0,"x_max":500,"ha":500,"o":"m 347 50 q 314 16 283 1 q 252 -14 216 -14 q 143 -14 88 48 q 33 109 33 205 q 33 301 94 381 q 154 461 250 461 q 309 461 347 423 l 347 506 q 347 583 344 600 q 340 618 332 624 q 324 630 312 630 q 300 630 279 623 l 272 640 l 406 694 l 428 694 l 428 177 q 428 99 431 81 q 435 64 443 57 q 451 50 462 50 q 475 50 497 59 l 502 42 l 370 -14 l 347 -14 z m 347 84 l 347 315 q 344 348 330 375 q 315 403 291 417 q 267 431 244 431 q 201 431 167 392 q 123 341 123 244 q 123 145 166 93 q 208 40 261 40 q 306 40 347 84 z"},"1":{"x_min":0,"x_max":500,"ha":500,"o":"m 117 597 l 278 676 l 294 676 l 294 117 q 294 61 299 47 q 304 34 318 26 q 333 19 378 18 l 378 0 l 129 0 l 129 18 q 176 19 189 26 q 203 33 208 45 q 214 57 214 117 l 214 474 q 214 546 209 567 q 206 583 197 590 q 188 597 175 597 q 157 597 125 582 z"},"5":{"x_min":0,"x_max":500,"ha":500,"o":"m 434 662 l 396 579 l 197 579 l 153 490 q 283 471 358 394 q 423 328 423 238 q 423 186 402 141 q 381 97 349 65 q 316 34 277 15 q 221 -12 162 -12 q 102 -12 75 9 q 48 29 48 53 q 48 67 59 77 q 70 88 87 88 q 100 88 110 84 q 119 80 142 64 q 179 39 216 39 q 273 39 317 82 q 360 125 360 187 q 360 247 321 299 q 283 351 215 379 q 162 401 70 405 l 197 662 z"}}}
